HIERARCHY
ROOT Hips
{
	OFFSET -14.64140 90.27770 -84.91600
	CHANNELS 6 Xposition Yposition Zposition Zrotation Xrotation Yrotation
	JOINT Spine
	{
		OFFSET 0.00000 13.20850 -1.60436
		CHANNELS 3 Zrotation Xrotation Yrotation
		JOINT Spine1
		{
			OFFSET 0.00000 8.61716 0.00000
			CHANNELS 3 Zrotation Xrotation Yrotation
			JOINT Spine2
			{
				OFFSET 0.00000 8.61717 0.00000
				CHANNELS 3 Zrotation Xrotation Yrotation
				JOINT Spine3
				{
					OFFSET 0.00000 8.61717 0.00000
					CHANNELS 3 Zrotation Xrotation Yrotation
					JOINT Neck
					{
						OFFSET 0.00000 11.07920 1.10792
						CHANNELS 3 Zrotation Xrotation Yrotation
						JOINT Neck1
						{
							OFFSET 0.00000 7.08032 0.00000
							CHANNELS 3 Zrotation Xrotation Yrotation
							JOINT Head
							{
								OFFSET 0.00000 7.08031 0.00000
								CHANNELS 3 Zrotation Xrotation Yrotation
								End site
								{
									OFFSET 0.00000 0.00000 0.00000
								}
							}
						}
					}
					JOINT RightShoulder
					{
						OFFSET -0.01000 7.91373 5.19711
						CHANNELS 3 Zrotation Xrotation Yrotation
						JOINT RightArm
						{
							OFFSET -18.41580 0.00000 0.00000
							CHANNELS 3 Zrotation Xrotation Yrotation
							JOINT RightForeArm
							{
								OFFSET -29.11090 0.00000 0.00000
								CHANNELS 3 Zrotation Xrotation Yrotation
								JOINT RightHand
								{
									OFFSET -24.65040 0.00000 0.00000
									CHANNELS 3 Zrotation Xrotation Yrotation
									JOINT RightHandThumb1
									{
										OFFSET -5.35114 -0.85590 3.97906
										CHANNELS 3 Zrotation Xrotation Yrotation
										JOINT RightHandThumb2
										{
											OFFSET -4.52789 0.00000 0.00000
											CHANNELS 3 Zrotation Xrotation Yrotation
											JOINT RightHandThumb3
											{
												OFFSET -2.46976 0.00000 0.00000
												CHANNELS 3 Zrotation Xrotation Yrotation
												End site
												{
													OFFSET 0.00000 0.00000 0.00000
												}
											}
										}
									}
									JOINT RightHandIndex1
									{
										OFFSET -14.26970 0.00000 2.88139
										CHANNELS 3 Zrotation Xrotation Yrotation
										JOINT RightHandIndex2
										{
											OFFSET -5.48836 0.00000 0.00000
											CHANNELS 3 Zrotation Xrotation Yrotation
											JOINT RightHandIndex3
											{
												OFFSET -3.01859 0.00000 0.00000
												CHANNELS 3 Zrotation Xrotation Yrotation
												End site
												{
													OFFSET 0.00000 0.00000 0.00000
												}
											}
										}
									}
									JOINT RightHandMiddle1
									{
										OFFSET -14.26970 0.00000 -0.09147
										CHANNELS 3 Zrotation Xrotation Yrotation
										JOINT RightHandMiddle2
										{
											OFFSET -6.17441 0.00000 0.00000
											CHANNELS 3 Zrotation Xrotation Yrotation
											JOINT RightHandMiddle3
											{
												OFFSET -3.56743 0.00000 0.00000
												CHANNELS 3 Zrotation Xrotation Yrotation
												End site
												{
													OFFSET 0.00000 0.00000 0.00000
												}
											}
										}
									}
									JOINT RightHandRing1
									{
										OFFSET -12.69180 0.00000 -3.06433
										CHANNELS 3 Zrotation Xrotation Yrotation
										JOINT RightHandRing2
										{
											OFFSET -5.62556 0.00000 0.00000
											CHANNELS 3 Zrotation Xrotation Yrotation
											JOINT RightHandRing3
											{
												OFFSET -3.56744 0.00000 0.00000
												CHANNELS 3 Zrotation Xrotation Yrotation
												End site
												{
													OFFSET 0.00000 0.00000 0.00000
												}
											}
										}
									}
									JOINT RightHandPinky1
									{
										OFFSET -11.11390 0.00000 -6.03719
										CHANNELS 3 Zrotation Xrotation Yrotation
										JOINT RightHandPinky2
										{
											OFFSET -4.52789 0.00000 0.00000
											CHANNELS 3 Zrotation Xrotation Yrotation
											JOINT RightHandPinky3
											{
												OFFSET -2.46976 0.00000 0.00000
												CHANNELS 3 Zrotation Xrotation Yrotation
												End site
												{
													OFFSET 0.00000 0.00000 0.00000
												}
											}
										}
									}
								}
							}
						}
					}
					JOINT LeftShoulder
					{
						OFFSET 0.01000 7.91373 5.19711
						CHANNELS 3 Zrotation Xrotation Yrotation
						JOINT LeftArm
						{
							OFFSET 18.41580 0.00000 0.00000
							CHANNELS 3 Zrotation Xrotation Yrotation
							JOINT LeftForeArm
							{
								OFFSET 29.11090 0.00000 0.00000
								CHANNELS 3 Zrotation Xrotation Yrotation
								JOINT LeftHand
								{
									OFFSET 24.65040 0.00000 0.00000
									CHANNELS 3 Zrotation Xrotation Yrotation
									JOINT LeftHandThumb1
									{
										OFFSET 5.35114 -0.85590 3.97906
										CHANNELS 3 Zrotation Xrotation Yrotation
										JOINT LeftHandThumb2
										{
											OFFSET 4.52789 0.00000 0.00000
											CHANNELS 3 Zrotation Xrotation Yrotation
											JOINT LeftHandThumb3
											{
												OFFSET 2.46977 0.00000 0.00000
												CHANNELS 3 Zrotation Xrotation Yrotation
												End site
												{
													OFFSET 0.00000 0.00000 0.00000
												}
											}
										}
									}
									JOINT LeftHandIndex1
									{
										OFFSET 14.26970 0.00000 2.88139
										CHANNELS 3 Zrotation Xrotation Yrotation
										JOINT LeftHandIndex2
										{
											OFFSET 5.48836 0.00000 0.00000
											CHANNELS 3 Zrotation Xrotation Yrotation
											JOINT LeftHandIndex3
											{
												OFFSET 3.01859 0.00000 0.00000
												CHANNELS 3 Zrotation Xrotation Yrotation
												End site
												{
													OFFSET 0.00000 0.00000 0.00000
												}
											}
										}
									}
									JOINT LeftHandMiddle1
									{
										OFFSET 14.26970 0.00000 -0.09147
										CHANNELS 3 Zrotation Xrotation Yrotation
										JOINT LeftHandMiddle2
										{
											OFFSET 6.17440 0.00000 0.00000
											CHANNELS 3 Zrotation Xrotation Yrotation
											JOINT LeftHandMiddle3
											{
												OFFSET 3.56744 0.00000 0.00000
												CHANNELS 3 Zrotation Xrotation Yrotation
												End site
												{
													OFFSET 0.00000 0.00000 0.00000
												}
											}
										}
									}
									JOINT LeftHandRing1
									{
										OFFSET 12.69180 0.00000 -3.06433
										CHANNELS 3 Zrotation Xrotation Yrotation
										JOINT LeftHandRing2
										{
											OFFSET 5.62556 0.00000 0.00000
											CHANNELS 3 Zrotation Xrotation Yrotation
											JOINT LeftHandRing3
											{
												OFFSET 3.56744 0.00000 0.00000
												CHANNELS 3 Zrotation Xrotation Yrotation
												End site
												{
													OFFSET 0.00000 0.00000 0.00000
												}
											}
										}
									}
									JOINT LeftHandPinky1
									{
										OFFSET 11.11390 0.00000 -6.03719
										CHANNELS 3 Zrotation Xrotation Yrotation
										JOINT LeftHandPinky2
										{
											OFFSET 4.52789 0.00000 0.00000
											CHANNELS 3 Zrotation Xrotation Yrotation
											JOINT LeftHandPinky3
											{
												OFFSET 2.46976 0.00000 0.00000
												CHANNELS 3 Zrotation Xrotation Yrotation
												End site
												{
													OFFSET 0.00000 0.00000 0.00000
												}
											}
										}
									}
								}
							}
						}
					}
					JOINT pCube4
					{
						OFFSET 0.00000 10.91090 1.10792
						CHANNELS 3 Zrotation Xrotation Yrotation
						End site
						{
							OFFSET 0.00000 0.00000 0.00000
						}
					}
				}
			}
		}
	}
	JOINT RightUpLeg
	{
		OFFSET -9.98441 0.00000 0.00000
		CHANNELS 3 Zrotation Xrotation Yrotation
		JOINT RightLeg
		{
			OFFSET 0.00000 -42.11790 0.00000
			CHANNELS 3 Zrotation Xrotation Yrotation
			JOINT RightFoot
			{
				OFFSET 0.00000 -45.00020 -0.00001
				CHANNELS 3 Zrotation Xrotation Yrotation
				JOINT RightForeFoot
				{
					OFFSET 0.00000 -3.74820 0.00000
					CHANNELS 3 Zrotation Xrotation Yrotation
					JOINT RightToeBase
					{
						OFFSET 0.00000 0.06325 14.43120
						CHANNELS 3 Zrotation Xrotation Yrotation
						End site
						{
							OFFSET 0.00000 0.00000 0.00000
						}
					}
				}
			}
		}
	}
	JOINT LeftUpLeg
	{
		OFFSET 9.98441 0.00000 0.00000
		CHANNELS 3 Zrotation Xrotation Yrotation
		JOINT LeftLeg
		{
			OFFSET 0.00000 -42.11800 0.00000
			CHANNELS 3 Zrotation Xrotation Yrotation
			JOINT LeftFoot
			{
				OFFSET 0.00000 -45.00070 0.00000
				CHANNELS 3 Zrotation Xrotation Yrotation
				JOINT LeftForeFoot
				{
					OFFSET 0.00000 -3.74824 0.00000
					CHANNELS 3 Zrotation Xrotation Yrotation
					JOINT LeftToeBase
					{
						OFFSET 0.00000 0.06325 14.43110
						CHANNELS 3 Zrotation Xrotation Yrotation
						End site
						{
							OFFSET 0.00000 0.00000 0.00000
						}
					}
				}
			}
		}
	}
}
MOTION
Frames: 4
Frame Time: 0.050000
-0.013099082360116391 -0.007455912908006914 0.004225055206178708 0.035339075086113496 -0.002124132911803131 -0.01183836831017757 -4.607719381391099 8.072804284222338 -0.5525482969740313 -0.7175295329267208 2.9568833173036575 0.37126234857581597 -1.0386612282591976 0.26148386037909965 -1.2538984656316867 -0.7360005748251229 0.22687119884353618 -1.0432496099643227 -0.1424232837866274 7.385018510520405 0.11233528643681587 -0.1559886935203882 -1.3704821562499117 -3.1624738045463126 -0.04831668144821055 -15.404278167022678 -0.20370385153391193 4.102122918424907 -0.12793373616515577 -9.822791830457604 58.71751613671985 -12.824325808971365 25.747842779609478 29.334115957930084 9.290291730372122 101.39315862482754 24.903477740600398 -0.05748601816285649 -10.705089195767433 4.5239400112675705 -0.13044406602102063 -1.614305640412136 0.043324595648791736 0.027343958639835332 -56.267813122400064 0.012151385628713622 -0.03361313136654368 -56.25421024627604 -38.80455958970611 0.03803999175199887 -0.022984958656166486 -0.0052673133480089064 -0.028693394190389087 0.03295940936585265 0.01916559453728178 0.00817078786570444 0.002730636703503288 -36.691557932413794 0.03280034002695079 -0.03736266780202323 0.009080754427430112 -0.0015249407123767243 0.04572030646092038 -0.007020970471855911 -0.028284961385268682 -0.016537496255724777 -19.787476049793426 0.008253561312643964 -0.016531331751917587 0.032914818855516115 0.025335335677561167 -0.011766477419936453 0.01338491163978825 -0.03111441291250644 0.02049885932759782 24.04939912905046 -0.042050039947539385 -0.0005676649622971652 28.877919206790445 0.03453511308126275 -0.042383600938739184 28.850353650116478 -0.001513762462775341 -0.03981982727713166 -3.5059715772021294 -0.06211050527107089 8.547759815533338 -60.60775109698019 18.74165918553834 -20.63827893127146 -44.67059156256104 9.688823139813923 -100.1957642785752 -12.651724954460754 2.8506090088917158 -1.7759771086346656 -0.4903584379262202 0.038473803815805424 -8.142021814740062 -0.04138952960022725 0.017444880126998193 44.5215361219316 0.012760058140470194 -0.019008785503354997 44.59115128964606 12.497117011889666 0.03435345515754179 -0.012403249466807936 -0.03567547918737249 -0.01139244624519776 0.001034825073485072 0.0405901726072005 -0.0376438893901006 -0.015058090304344131 11.079236468326974 -0.036637475641370314 -0.013897313954329268 -0.01619232950866542 0.0012197496527081987 -0.03171534811535094 -0.029600090311296935 -0.030036742859015832 -0.0015555925014988014 4.78016741007449 -0.0073429728685713855 -0.04758536476668114 -0.026194568003230476 -0.03195494618519307 -0.029130298451978353 0.018731791016595164 -5.8700873355362094e-05 -0.012843049757473062 -5.632614090879938 0.008798540795535128 0.0045120855552244436 -6.755285434463525 0.03156442929308478 -0.03348654117942353 -6.734565286378699 -0.04527924706811807 -0.041459240720984884 0.007293737422201979 -0.042583053025618836 -0.019340307309686156 8.084259198296667 3.511994956341174 -19.175788086605216 0.03582975421250373 10.436730035781915 0.0340406611829899 -5.574550831078886 -15.688545725853846 3.1484996355208104 -0.04688334069967374 -0.047839178476042056 -0.022654770049130645 0.03443304836501276 4.69050714362817 0.032250820713896254 12.470687576773896 -8.23963256607803 6.904118184650142 0.03322682856598361 46.342822917728014 0.008648608867030987 -4.324431345268101 -14.739832479669102 -3.8399377987894887 0.0208124920287705 -0.032273643733262004 0.027543800058119274 -0.03564858294957593 -10.702008731144975 0.014972320421993477 
0.023205548252652988 0.004785145764824639 0.02254084015969305 0.03603225700237688 -0.037288199793006446 0.04919932205979143 -4.476462595966364 7.8625254247196645 -0.49251906505892584 -0.7256593014729567 2.963018898325218 0.34408238332038205 -1.0489792099072386 0.22100624248890066 -1.5119079654859522 -0.585270356873994 0.23018087316425762 -1.0668354270533127 -0.004605584346641836 7.578592776261179 -0.08248243725112984 -0.11333063748571981 -1.2245576659591009 -3.4955383337425756 -0.0369927179680995 -15.274240516518905 -0.2333215613245269 3.8171025989323977 -0.06257060599773326 -9.758567796384982 56.4014790627524 -13.80926319264975 28.11438890564351 29.79149313982777 9.790897941423923 100.66211002856353 25.22301942542872 -0.01948766103668924 -11.054752876553437 4.478857390417555 -0.10625766840939926 -1.6071434802300966 -0.0008189739825645682 0.005888124847138835 -56.27171254294677 -0.013820803749624433 -0.005382788826657495 -56.19799688377277 -38.76209505347259 0.02276855686560528 -0.02146336686964407 0.015758140474778734 -0.011040558913679296 -0.013941432892326328 0.021466637703855714 0.002582522989101362 -0.0006112844566272614 -36.7077939985151 -0.02088631412140909 -0.0337293140503892 -0.004551518908437099 -0.0034160549131113218 -0.016054723668840185 -0.03629711973943835 -0.023447220813825588 -0.000925596285464124 -19.76138130636793 0.004661226135895981 -0.02984544825319629 0.008098839250349188 0.01989361365566613 0.01090738127243915 0.011525807250092616 -0.046285783863722646 -0.027984125874374138 24.065218812688617 0.03161553654347978 0.023035070337588975 28.887992028697496 -0.020919430262248517 -0.005578551047213244 28.82269207410678 -0.03265828265653001 -0.0007254448988947996 -3.269035837427255 -0.09046502833614395 8.329661986884876 -58.68539319015383 19.888037694574923 -22.975270294424483 -41.839863347196 9.278456423250187 -100.08052838191695 -13.213737726266526 2.6277747969252903 -1.8027838925541864 -0.49943400222476286 0.06709448411422345 -8.158445871699485 -0.042138420011002944 0.030646362397105605 44.539497657256135 -0.01998839519064263 0.017918626397118616 44.55875259019229 12.464716618701615 -0.004483018707843786 -0.039904855507594164 0.035141675177365356 0.044311439541141695 0.04168581748452965 -0.026454313503149075 -0.030961515569485048 -0.007422484628861937 11.132781390021945 -0.03416836796886256 0.011719750551653663 -0.01865880925261447 0.03528955649926068 -0.026195716771697797 0.006915576104325222 -0.003329363043064938 -0.00502312142600044 4.752908351743179 -0.004201109475259022 -0.031987710995360165 -0.014094853841539185 -0.010002096209388781 -0.010260224746818553 -0.011001054602160706 -0.013079058026367324 -0.04632665059250739 -5.605858859591652 -0.036604875584811854 0.028368090997877966 -6.711811836817554 0.011245135695772668 -0.00738105489936029 -6.751695076816233 -0.010857838279326815 -0.03038593590465917 -0.02972557511577617 -0.007198532234010676 -0.004308847843619212 8.048549614105013 3.4939463870147636 -19.213660092863645 0.044019941713941815 10.373221384625653 -0.02113307049085655 -5.612752087886156 -15.625114747852942 3.1556823437024173 -0.02093348079420748 0.006642119566436841 -0.049200287458658794 0.0165786859630397 4.737457801308829 -0.009603359624366028 12.490852863537516 -8.264026919776473 6.836223643295421 0.0168522578690606 46.33305133162342 0.032972573396151034 -4.338836191552184 -14.745391098373581 -3.831371943560163 -0.011304870038927778 -0.006350762322845552 0.0030106736259651 0.014531669730999916 -10.711253600936061 0.013303904399077207 
0.04314044422533694 0.011306195634148903 0.012605080407258308 -0.011630153942507377 0.017397021798319864 0.01665724982239138 -4.332683944877905 7.802034042477218 -0.5296414349202824 -0.7182451281219101 2.9442045910867827 0.3459583577564154 -1.017463651535115 0.1550762046558001 -1.726646247154477 -0.4442711127736993 0.2692003731314405 -1.0684309382897905 -0.012382155047349117 7.69652429460453 -0.34871501525409243 -0.08864089936303637 -1.1672949944628281 -3.7097155580135106 0.01479551282970103 -15.193092388136318 -0.20620358776707937 3.523577848517017 0.033321331651969426 -9.734044614853712 54.42426477968365 -14.600745225702639 30.446313764656512 30.22833474062071 10.154617626045171 99.35507505008282 25.600373007406034 -0.06430950189690929 -11.468351371710169 4.562382039277872 -0.12075217804190871 -1.5558742501035214 -0.01675398347499868 -0.031310997512179244 -56.24045270604163 -0.02232592459975731 0.03390424201396346 -56.25733094585734 -38.81460784980875 -0.0004263880651261876 -0.030621504040620966 0.03587956874099626 -0.012054626508533962 0.03781075831822556 0.045190855722536935 0.0438487971637559 0.011966342740449422 -36.719611898529784 -0.04459142158152493 -0.004127399998777077 -0.025232821439942512 -0.04743782452612795 -0.010081282389868164 0.012858139405655498 0.024327517271517125 -0.004906910455164207 -19.781776272912452 0.03878436982586504 0.013998501037986808 0.04039991715676094 -0.0358920367598049 -0.008294492865005542 0.0032322775121955915 -0.003007550876730971 -0.009277637130203168 24.063483082579328 0.0038084802917599937 -0.0030182064231997464 28.82849879627726 0.0104355491619531 -0.008831622152098506 28.891568473896076 -0.03444779955621415 -0.035915782129185135 -2.995457365663535 -0.06544415455016256 8.03342574963505 -56.47798134871794 20.97994036822931 -25.695848665982055 -37.38592329276082 8.185296954331 -99.081265433359 -14.008993594723663 2.0932070606177424 -1.7917325945283518 -0.5060243177736622 0.07197365683049245 -8.133443636959406 -0.030788860428496857 -0.018716808527907223 44.572638646903414 -0.030460944841048915 -0.040119485444264594 44.60157955921329 12.437530226214376 -0.00787103468993744 0.0370977219780726 -0.03432364546756539 0.02418200503309852 0.01910869292643035 0.02791394008216181 0.0385253932980648 -0.013056743478165685 11.078064882545334 0.04230133739072747 0.02151553888014469 -0.02654082676610931 -0.026932750063985884 -0.021399192397345196 -0.0373864639510196 -0.029139709019527657 -0.04940960139205481 4.818268286501666 -0.02946024496757511 -0.005881965213522406 -0.02257695396270977 -0.0438069353875407 -0.008986137484262533 -0.0008721974458047804 -0.024169359872240462 0.015526028524772797 -5.550984802327514 -0.046031614847717325 -0.033238119807831215 -6.687403337663335 0.01797489136771291 0.0402417618180415 -6.700889923415902 -0.006951005815774809 0.023320760473688515 0.02676638940735004 0.02933338046472199 0.00034426136409418026 8.017246229523407 3.45153016333867 -19.203384794411754 0.022191694606490727 10.406770814602162 -0.0026862647991599924 -5.595310733393923 -15.683562903154984 3.1627097008915688 0.04810543153827002 0.03690156893495826 0.026329572840915017 -0.014750888450962854 4.714566931936159 0.020585878286813762 12.463900423148429 -8.226685106052077 6.842164893615215 -0.028116902452605588 46.36728375807156 0.010074180080161886 -4.332796903143381 -14.708175325106795 -3.8706933279022846 -0.007634237276702794 -0.02396224737692854 -0.022223046483747982 0.0485476291766561 -10.765803795270648 -0.023704624633223977 
-0.02459116192235005 0.02003111947659713 0.045846533397780914 -0.0058138976676261785 0.037225667010611384 0.04275806060953674 -4.209066878174594 7.737013412227139 -0.5735884367905962 -0.7061302917178235 2.8979428364756075 0.40507280041024196 -0.9526146958080703 0.12184742785314141 -1.8407295422950922 -0.39721009147753017 0.20443695362654873 -1.121387880571248 0.025928503656538364 7.888899170720228 -0.4220512135802239 -0.09804136652495667 -1.1720441916804178 -3.853853180736258 -0.00042752629367602546 -15.112397751136779 -0.27388733559459655 3.252109756574608 0.07882804722603454 -9.608366815397508 53.16101303036504 -15.002236304034637 32.401584939251684 30.41925272894578 10.585913924033395 97.32871313982827 25.883242809231334 -0.05041085749256746 -11.74198374683105 4.528409662182599 -0.1662769342717465 -1.5568934122656093 0.017968704287334148 0.018024204141423018 -56.26224946713025 -0.013127401195014017 -0.004137485990259671 -56.23581491836759 -38.75533145559828 -0.011306497785197567 -0.012786990966787112 0.039425026108421586 0.02069385856978959 -0.020947439994781464 -0.0056887876381715415 -0.03552737831656255 -0.047897180377027886 -36.71489969112922 0.011604160064521297 -0.03521329196847955 -0.010562456599075988 0.005736482400829864 0.03273679680629518 0.031464797428285375 0.0019253682204825734 -0.037072781326058166 -19.789536656088785 0.005952448706765401 -0.04370627694781275 -0.03687513075738525 0.0025832222436775023 -0.025782415133763073 0.029068128418381002 0.003324808846320735 0.005177199990098229 24.009924041763696 0.021215025484363062 -0.044662959655794233 28.85708829715737 0.04580299483597978 -0.03994375107623602 28.843324910703412 0.011732823796371123 0.02793397463074458 -2.6603736148015873 0.07304377003764875 7.812589452099485 -54.67764399184653 21.71281926275355 -28.13118924281036 -33.107319081957534 7.141782266830647 -97.84913954921231 -14.897654898626033 1.668479289897178 -1.692485252197627 -0.5106013189638645 0.03319718622651512 -8.128604839702504 -0.01338990523991781 -0.016397522886731145 44.53337354780057 -0.019156729854167387 0.009854579211424236 44.59058867763791 12.437719804156732 0.019114242206718434 -0.030990368220191248 -0.010960429055704622 -0.020645811599781357 0.016573780174962416 0.02218732942675326 -0.02302926401647371 -0.038483830842975256 11.140613224161289 -0.041418542670927275 0.0009765302516010851 0.0064238493399873565 -0.027811082393435455 -0.03816531837592769 -0.032734823684172486 0.003025371406151802 -0.026675231938156616 4.810622281750053 0.004127982005380375 -0.03899131613019146 0.023186261389092497 0.03308590941650606 -0.020606997843808147 0.02611860873339258 0.01964683095126727 -0.014889330821737153 -5.648065758865876 0.02339095444067825 0.03740038993618281 -6.749518039478704 0.04464081344368201 -0.02418620559810686 -6.752557273472165 -0.0354174975844952 0.048854025842330874 0.023439547321251454 -0.029150749935014538 -0.03498910162795608 8.075365840784285 3.472792360474802 -19.267655343609377 -0.01975229323351907 10.37563159169064 -0.0158578316379963 -5.6053858686546585 -15.709871074625365 3.2306762650074283 -0.022893776796372445 0.030499366623899838 -0.033784091050591034 -0.00795290425183329 4.682461592655908 -0.02964601110616756 12.458656279689789 -8.239897968741127 6.923503808924991 -0.006985167770252269 46.36403730337927 -0.01706263824350007 -4.372911180302271 -14.774367273887064 -3.813836899037244 0.036600343742045814 -0.01851284619426466 0.041859604958368386 0.043472216239606315 -10.747278323699295 -0.006231757919330398 
